<?xml version="1.0" encoding="utf-8"?>
<!-- Generator: Adobe Illustrator 16.0.0, SVG Export Plug-In . SVG Version: 6.00 Build 0)  -->
<!DOCTYPE svg PUBLIC "-//W3C//DTD SVG 1.1//EN" "http://www.w3.org/Graphics/SVG/1.1/DTD/svg11.dtd">
<svg version="1.1" id="图层_1" xmlns="http://www.w3.org/2000/svg" xmlns:xlink="http://www.w3.org/1999/xlink" x="0px" y="0px"
	 width="100px" height="100px" viewBox="0 0 100 100" enable-background="new 0 0 100 100" xml:space="preserve">
<path fill="#61C3F0" stroke="#FFFFFF" stroke-miterlimit="10" d="M97.381,51.074c0,26.17-21.215,47.381-47.381,47.381l0,0
	c-26.168,0-47.381-21.211-47.381-47.381v-2.148c0-26.167,21.213-47.38,47.381-47.38l0,0c26.166,0,47.381,21.213,47.381,47.38V51.074
	z M39.052,53.16l-18.384-21.1c-6.127-12.852,8.398-7.48,8.398-7.48L53.35,41.651l4.313-5.179L34.967,20.36
	C2.284,10.002,17.492,37.623,17.492,37.623s0,0,17.475,20.365L39.052,53.16z M59.457,45.812L77.84,66.908
	c6.127,12.855-8.396,7.48-8.396,7.48L45.158,57.32l-4.312,5.178l22.695,16.111c32.682,10.357,17.477-17.262,17.477-17.262
	s0,0-17.477-20.365L59.457,45.812z"/>
</svg>
